<svg viewBox="0 0 1439 385" fill="none" xmlns="http://www.w3.org/2000/svg">
<rect width="1440" height="385" color="red"/>

<path opacity="0.8" fill-rule="evenodd" clip-rule="evenodd" d="M975 304.513C975 304.23 975.228 304 975.508 304H986.356C986.637 304 986.864 304.23 986.864 304.513C986.864 304.796 986.637 305.025 986.356 305.025H976.017V329.975H993.983V312.715C993.983 312.432 994.211 312.203 994.492 312.203C994.772 312.203 995 312.432 995 312.715V330.487C995 330.77 994.772 331 994.492 331H975.508C975.228 331 975 330.77 975 330.487V304.513Z" fill="white"/>
<path opacity="0.8" fill-rule="evenodd" clip-rule="evenodd" d="M980 317.5C980 317.224 980.217 317 980.484 317H989.516C989.783 317 990 317.224 990 317.5C990 317.776 989.783 318 989.516 318H980.484C980.217 318 980 317.776 980 317.5Z" fill="white"/>
<path opacity="0.8" fill-rule="evenodd" clip-rule="evenodd" d="M980 320.5C980 320.224 980.217 320 980.484 320H989.516C989.783 320 990 320.224 990 320.5C990 320.776 989.783 321 989.516 321H980.484C980.217 321 980 320.776 980 320.5Z" fill="white"/>
<path opacity="0.8" fill-rule="evenodd" clip-rule="evenodd" d="M980 323.5C980 323.224 980.217 323 980.484 323H989.516C989.783 323 990 323.224 990 323.5C990 323.776 989.783 324 989.516 324H980.484C980.217 324 980 323.776 980 323.5Z" fill="white"/>
<path opacity="0.8" fill-rule="evenodd" clip-rule="evenodd" d="M980 326.5C980 326.224 980.217 326 980.484 326H989.516C989.783 326 990 326.224 990 326.5C990 326.776 989.783 327 989.516 327H980.484C980.217 327 980 326.776 980 326.5Z" fill="white"/>
</svg>
